<?xml version="1.0" encoding="iso-8859-1"?>
<!-- Generator: Adobe Illustrator 19.0.0, SVG Export Plug-In . SVG Version: 6.00 Build 0)  -->
<svg version="1.1" id="Capa_1" xmlns="http://www.w3.org/2000/svg" xmlns:xlink="http://www.w3.org/1999/xlink" x="0px" y="0px"
	 viewBox="0 0 512 512" style="enable-background:new 0 0 512 512;" xml:space="preserve">
<g>
	<g>
		<path style="fill:#4482C3;" d="M412.203,147.525v-34.712c-0.026,1.382-0.275,2.751-0.738,4.054
			c0.463-1.303,0.712-2.672,0.738-4.054c0-23.951-69.944-43.39-156.203-43.39S99.797,88.862,99.797,112.814
			c0.025,1.382,0.274,2.751,0.738,4.054c-0.463-1.303-0.712-2.672-0.738-4.054v34.712c0,7.116,6.248,13.885,17.356,19.873v19.439
			c0.023,3.207-1.754,6.157-4.599,7.637c-8.244,4.252-12.757,8.938-12.757,13.798V468.61c0,18.918,43.477,34.972,104.136,40.96
			C220.247,511.132,237.776,512,256,512s35.753-0.868,52.068-2.43c60.659-5.988,104.136-22.042,104.136-40.96V208.271
			c0-4.86-4.513-9.546-12.757-13.798c-2.846-1.48-4.622-4.429-4.599-7.637v-19.439C405.955,161.41,412.203,154.641,412.203,147.525z
			 M305.011,153.991c13.626-1.252,26.464-2.986,38.14-5.171c-10.826,2.031-22.56,3.717-35.083,4.953
			C307.083,153.868,306.004,153.902,305.011,153.991z M393.826,133.215c2.176-1.132,4.213-2.288,6.029-3.476
			C398.041,130.928,396.001,132.083,393.826,133.215z M399.938,129.69c1.741-1.14,3.4-2.399,4.967-3.769
			C403.338,127.291,401.679,128.55,399.938,129.69L399.938,129.69z M405.75,125.097c0.99-0.922,1.91-1.916,2.754-2.974
			C407.66,123.18,406.74,124.174,405.75,125.097L405.75,125.097z M409.388,120.903c0.61-0.898,1.134-1.851,1.565-2.847
			C410.521,119.052,409.997,120.005,409.388,120.903L409.388,120.903z M392.399,133.924c-1.896,0.944-3.91,1.865-6.044,2.763
			C388.492,135.789,390.506,134.868,392.399,133.924z M384.85,137.318c-9.423,3.694-19.118,6.653-28.999,8.848
			C365.732,143.971,375.428,141.013,384.85,137.318z M354.666,146.435c-3.55,0.806-7.223,1.569-11.019,2.289
			C347.448,148.006,351.121,147.243,354.666,146.435z M284.565,155.445c-1.515,0.077-3.043,0.129-4.572,0.194
			C281.516,155.573,283.056,155.523,284.565,155.445z M203.932,153.774c-12.522-1.236-24.256-2.923-35.083-4.953
			c11.676,2.185,24.513,3.919,38.14,5.171C205.995,153.902,204.917,153.868,203.932,153.774z M227.436,155.445
			c1.508,0.077,3.047,0.128,4.57,0.194C230.478,155.574,228.95,155.522,227.436,155.445L227.436,155.445z M103.496,122.123
			c0.844,1.058,1.764,2.052,2.754,2.974C105.26,124.174,104.34,123.18,103.496,122.123L103.496,122.123z M101.048,118.056
			c0.431,0.996,0.955,1.949,1.565,2.847C102.003,120.005,101.479,119.052,101.048,118.056L101.048,118.056z M112.145,129.739
			c1.816,1.189,3.853,2.344,6.029,3.476C115.999,132.083,113.959,130.928,112.145,129.739L112.145,129.739z M107.095,125.921
			c1.566,1.37,3.226,2.629,4.967,3.769C110.321,128.55,108.661,127.29,107.095,125.921L107.095,125.921z M168.353,148.724
			c-3.8-0.719-7.473-1.482-11.019-2.289C160.884,147.24,164.557,148.003,168.353,148.724z M156.148,146.166
			c-9.879-2.195-19.574-5.153-28.995-8.847C136.575,141.013,146.269,143.971,156.148,146.166z M125.642,136.687
			c-2.135-0.898-4.149-1.819-6.041-2.762C121.496,134.867,123.51,135.788,125.642,136.687z"/>
		<path style="fill:#4482C3;" d="M412.203,112.814v34.712c0,7.116-6.248,13.885-17.356,19.873
			c-19.947,9.32-41.238,15.44-63.089,18.137c-7.55,1.128-15.447,2.169-23.691,2.951l-104.136-0.087
			c-37.662-3.645-68.643-11.281-86.78-21.001c-11.108-5.988-17.356-12.757-17.356-19.873v-34.712
			c0,18.918,43.477,34.972,104.136,40.96c16.315,1.562,33.844,2.43,52.068,2.43s35.753-0.868,52.068-2.43
			C368.727,147.786,412.203,131.732,412.203,112.814z"/>
	</g>
	<ellipse style="fill:#BDC3C7;" cx="256" cy="112.814" rx="156.203" ry="43.39"/>
	<path style="fill:#285680;" d="M412.203,208.271c0,18.918-43.477,34.972-104.136,40.96H203.932
		c-60.659-5.988-104.136-22.042-104.136-40.96c0-4.86,4.513-9.546,12.757-13.798c2.846-1.48,4.622-4.429,4.599-7.637v-19.439
		c18.137,9.719,49.117,17.356,86.78,21.001l104.136,0.087c8.244-0.781,16.141-1.822,23.691-2.951
		c21.851-2.697,43.142-8.817,63.089-18.137v19.439c-0.023,3.207,1.754,6.157,4.599,7.637
		C407.691,198.725,412.203,203.412,412.203,208.271z"/>
	<path style="fill:#ECF0F1;" d="M308.068,153.774V509.57C291.753,511.132,274.224,512,256,512s-35.753-0.868-52.068-2.43V153.774
		c16.315,1.562,33.844,2.43,52.068,2.43S291.753,155.336,308.068,153.774z"/>
	<g>
		<path style="fill:#F0785A;" d="M203.932,121.492c-2.302,0.001-4.509-0.913-6.137-2.541c-1.628-1.628-2.542-3.835-2.541-6.137
			V8.678c0-4.793,3.885-8.678,8.678-8.678s8.678,3.885,8.678,8.678v104.136c0.001,2.302-0.913,4.509-2.541,6.137
			C208.442,120.578,206.234,121.492,203.932,121.492z"/>
		<path style="fill:#F0785A;" d="M308.068,121.492c-2.302,0.001-4.509-0.913-6.137-2.541c-1.628-1.628-2.542-3.835-2.541-6.137
			V8.678c0-4.793,3.885-8.678,8.678-8.678c4.793,0,8.678,3.885,8.678,8.678v104.136c0.001,2.302-0.913,4.509-2.541,6.137
			S310.37,121.492,308.068,121.492z"/>
	</g>
	<g>
		<path style="fill:#7F8C8D;" d="M264.678,286.373h-17.356c-9.581-0.011-17.345-7.775-17.356-17.356v-52.068
			c0.011-9.581,7.775-17.345,17.356-17.356h17.356c9.581,0.011,17.345,7.775,17.356,17.356v52.068
			C282.023,278.598,274.259,286.362,264.678,286.373z M247.322,216.949v52.068h17.365l-0.009-52.068H247.322z"/>
		<path style="fill:#7F8C8D;" d="M264.678,468.61h-17.356c-9.581-0.011-17.345-7.775-17.356-17.356v-52.068
			c0.011-9.581,7.775-17.345,17.356-17.356h17.356c9.581,0.011,17.345,7.775,17.356,17.356v52.068
			C282.023,460.835,274.259,468.599,264.678,468.61z M247.322,399.186v52.068h17.365l-0.009-52.068H247.322z"/>
	</g>
</g>
<g>
</g>
<g>
</g>
<g>
</g>
<g>
</g>
<g>
</g>
<g>
</g>
<g>
</g>
<g>
</g>
<g>
</g>
<g>
</g>
<g>
</g>
<g>
</g>
<g>
</g>
<g>
</g>
<g>
</g>
</svg>
